<svg xmlns="http://www.w3.org/2000/svg" version="1.1" xmlns:xlink="http://www.w3.org/1999/xlink" xmlns:svgjs="http://svgjs.com/svgjs" width="1550" height="550" preserveAspectRatio="none" viewBox="0 0 1550 550">
    <g mask="url(&quot;#SvgjsMask1004&quot;)" fill="none">
        <rect width="1550" height="550" x="0" y="0" fill="rgba(255, 255, 255, 1)"></rect>
        <path d="M1575.8333333333333 550L0 550 L0 311.72Q37.7 271.92, 77.5 309.62Q163.67 266.63, 206.66666666666666 352.8Q229.26 297.89, 284.16666666666663 320.48Q355.09 262.24, 413.33333333333326 333.17Q463.11 305.45, 490.83333333333326 355.22Q538.24 273.46, 619.9999999999999 320.86Q666.79 290.15, 697.4999999999999 336.94Q778.26 288.53, 826.6666666666665 369.29Q853.38 266.84, 955.8333333333331 293.56Q1013.91 222.47, 1084.9999999999998 280.54Q1180.13 246.51, 1214.1666666666665 341.64Q1239.64 289.62, 1291.6666666666665 315.09Q1310.38 256.3, 1369.1666666666665 275.02Q1422.61 250.97, 1446.6666666666665 304.41Q1533.25 261.83, 1575.8333333333333 348.41z" fill="rgba(0, 190, 162, 1)"></path>
        <path d="M1601.6666666666667 550L0 550 L0 407.95Q38.81 369.26, 77.5 408.07Q123.47 376.54, 155 422.51Q199.41 337.76, 284.16666666666663 382.17Q329.03 349.53, 361.66666666666663 394.4Q408.39 311.96, 490.83333333333326 358.69Q555.58 345.94, 568.3333333333333 410.68Q620.67 333.85, 697.4999999999999 386.18Q756.62 367.81, 774.9999999999999 426.93Q799.81 374.25, 852.4999999999999 399.06Q896.91 314.31, 981.6666666666665 358.72Q1029.06 328.61, 1059.1666666666665 376Q1119.29 358.62, 1136.6666666666665 418.74Q1171.09 323.99, 1265.8333333333333 358.41Q1343.34 306.75, 1395 384.25Q1451.38 363.13, 1472.5 419.52Q1531.3 349.16, 1601.6666666666667 407.96z" fill="rgba(0, 162, 138, 1)"></path>
        <path d="M1575.8333333333335 550L0 550 L0 494.65Q18.02 435.17, 77.5 453.19Q157.52 404.04, 206.66666666666666 484.06Q239.34 387.57, 335.8333333333333 420.24Q405.72 360.96, 465 430.84Q531.5 419.84, 542.5 486.34Q563.64 429.99, 620 451.13Q667.67 369.64, 749.1666666666666 417.31Q839.34 378.32, 878.3333333333333 468.5Q925.51 438.18, 955.8333333333333 485.35Q958.29 410.31, 1033.3333333333333 412.76Q1089.61 391.54, 1110.8333333333333 447.82Q1137.72 397.2, 1188.3333333333333 424.09Q1279.91 386.5, 1317.5 478.08Q1349.63 381.05, 1446.6666666666667 413.18Q1530.76 368.11, 1575.8333333333335 452.21z" fill="rgba(1, 138, 118, 1)"></path>
        <path d="M1601.6666666666665 550L0 550 L0 485.74Q49.35 457.59, 77.5 506.93Q150.67 502.6, 155 575.77Q169.78 513.05, 232.5 527.82Q279.11 445.27, 361.66666666666663 491.88Q437.96 439.01, 490.83333333333326 515.31Q576.81 472.12, 619.9999999999999 558.09Q630.56 491.15, 697.4999999999999 501.72Q777.21 452.27, 826.6666666666665 531.98Q901.57 477.72, 955.8333333333331 552.63Q962.04 481.34, 1033.333333333333 487.54Q1077.1 453.81, 1110.833333333333 497.58Q1187.84 497.09, 1188.333333333333 574.09Q1207.65 515.91, 1265.833333333333 535.23Q1317.98 509.88, 1343.333333333333 562.03Q1414.1 503.63, 1472.4999999999998 574.39Q1510.59 483.32, 1601.6666666666665 521.41z" fill="rgba(16, 233, 174, 1)"></path>
    </g>
    <defs>
        <mask id="SvgjsMask1004">
            <rect width="1550" height="550" fill="#ffffff"></rect>
        </mask>
    </defs>
</svg>